{
  "source": "C:\\Users\\Peter\\Desktop\\stuff\\MIUN\\quantitative_research\\video_compression\\videos\\BVI-HD\\BVI-HD_CDVL_videos\\ORIG\\TreeTrunk_1920x1080_50fps.mp4",
  "output": "C:\\Users\\Peter\\Desktop\\stuff\\MIUN\\quantitative_research\\video_compression\\compressed_videos\\BVI-HD\\av1\\4\\TreeTrunk_1920x1080_50fps_av1.mkv",
  "codec": "av1",
  "ok": "Input #0, mov,mp4,m4a,3gp,3g2,mj2, from 'C:\\Users\\Peter\\Desktop\\stuff\\MIUN\\quantitative_research\\video_compression\\videos\\BVI-HD\\BVI-HD_CDVL_videos\\ORIG\\TreeTrunk_1920x1080_50fps.mp4':\n  Metadata:\n    major_brand     : isom\n    minor_version   : 512\n    compatible_brands: isomiso2avc1mp41\n    encoder         : Lavf54.28.101\n  Duration: 00:00:05.00, start: 0.000000, bitrate: 622415 kb/s\n  Stream #0:0[0x1](und): Video: h264 (High 4:4:4 Predictive) (avc1 / 0x31637661), yuv420p(progressive), 1920x1080, 622410 kb/s, 50 fps, 50 tbr, 50 tbn (default)\n    Metadata:\n      handler_name    : VideoHandler\n      vendor_id       : [0][0][0][0]\n[out#0/matroska @ 000002a7a4d0f0c0] Codec AVOption b:a (set bitrate (in bits/s)) has not been used for any stream. The most likely reason is either wrong type (e.g. a video option with no video streams) or that it is a private option of some decoder which was not actually used for any stream.\nStream mapping:\n  Stream #0:0 -> #0:0 (h264 (native) -> av1 (libsvtav1))\nPress [q] to stop, [?] for help\nSvt[info]: -------------------------------------------\nSvt[info]: SVT [version]:\tSVT-AV1 Encoder Lib v3.1.0-19-g6ecfe8ec\nSvt[info]: SVT [build]  :\tGCC 15.2.0\t 64 bit\nSvt[info]: LIB Build date: Aug 17 2025 11:37:13\nSvt[info]: -------------------------------------------\nSvt[info]: Level of Parallelism: 5\nSvt[info]: Number of PPCS 93\nSvt[info]: [asm level on system : up to avx2]\nSvt[info]: [asm level selected : up to avx2]\nSvt[info]: -------------------------------------------\nSvt[info]: SVT [config]: main profile\ttier (auto)\tlevel (auto)\nSvt[info]: SVT [config]: width / height / fps numerator / fps denominator \t\t: 1920 / 1080 / 50 / 1\nSvt[info]: SVT [config]: bit-depth / color format \t\t\t\t\t: 8 / YUV420\nSvt[info]: SVT [config]: preset / tune / pred struct \t\t\t\t\t: 4 / PSNR / random access\nSvt[info]: SVT [config]: gop size / mini-gop size / key-frame type \t\t\t: 321 / 16 / key frame\nSvt[info]: SVT [config]: BRC mode / target bitrate (kbps)\t\t\t\t: VBR / 4000 \nSvt[info]: SVT [config]: AQ mode / Variance Boost \t\t\t\t\t: 2 / 0\nSvt[info]: SVT [config]: sharpness / luminance-based QP bias \t\t\t\t: 0 / 0\nSvt[info]: SVT [config]: QP scale compress strength \t\t\t\t\t: 0\nSvt[info]: -------------------------------------------\nOutput #0, matroska, to 'C:\\Users\\Peter\\Desktop\\stuff\\MIUN\\quantitative_research\\video_compression\\compressed_videos\\BVI-HD\\av1\\4\\TreeTrunk_1920x1080_50fps_av1.mkv':\n  Metadata:\n    major_brand     : isom\n    minor_version   : 512\n    compatible_brands: isomiso2avc1mp41\n    encoder         : Lavf62.3.100\n  Stream #0:0(und): Video: av1 (AV01 / 0x31305641), yuv420p(tv, progressive), 1920x1080, q=2-31, 4000 kb/s, 50 fps, 1k tbn (default)\n    Metadata:\n      encoder         : Lavc62.11.100 libsvtav1\n      handler_name    : VideoHandler\n      vendor_id       : [0][0][0][0]\n    Side data:\n      cpb: bitrate max/min/avg: 0/0/4000000 buffer size: 4000000 vbv_delay: N/A\nframe=    0 fps=0.0 q=0.0 size=       0KiB time=N/A bitrate=N/A speed=N/A elapsed=0:00:01.06    \nframe=    0 fps=0.0 q=0.0 size=       0KiB time=N/A bitrate=N/A speed=N/A elapsed=0:00:01.85    \nframe=    0 fps=0.0 q=0.0 size=       0KiB time=N/A bitrate=N/A speed=N/A elapsed=0:00:02.45    \nframe=    0 fps=0.0 q=0.0 size=       0KiB time=N/A bitrate=N/A speed=N/A elapsed=0:00:03.00    \nframe=    0 fps=0.0 q=0.0 size=       0KiB time=N/A bitrate=N/A speed=N/A elapsed=0:00:03.59    \nframe=    0 fps=0.0 q=0.0 size=       0KiB time=N/A bitrate=N/A speed=N/A elapsed=0:00:04.28    \nframe=    0 fps=0.0 q=0.0 size=       0KiB time=N/A bitrate=N/A speed=N/A elapsed=0:00:04.89    \nframe=    0 fps=0.0 q=0.0 size=       0KiB time=N/A bitrate=N/A speed=N/A elapsed=0:00:05.44    \nframe=    0 fps=0.0 q=0.0 size=       0KiB time=N/A bitrate=N/A speed=N/A elapsed=0:00:06.00    \nframe=    0 fps=0.0 q=0.0 size=       0KiB time=N/A bitrate=N/A speed=N/A elapsed=0:00:06.56    \nframe=    0 fps=0.0 q=0.0 size=       0KiB time=N/A bitrate=N/A speed=N/A elapsed=0:00:07.16    \nframe=    1 fps=0.1 q=16.0 size=       1KiB time=00:00:00.00 bitrate=N/A speed=   0x elapsed=0:00:07.72    \nframe=    1 fps=0.1 q=16.0 size=       1KiB time=00:00:00.00 bitrate=N/A speed=   0x elapsed=0:00:08.26    \nframe=    2 fps=0.2 q=45.0 size=       1KiB time=00:00:00.02 bitrate= 285.2kbits/s speed=0.00227x elapsed=0:00:08.82    \nframe=    6 fps=0.6 q=40.0 size=       1KiB time=00:00:00.10 bitrate=  57.0kbits/s speed=0.0107x elapsed=0:00:09.38    \nframe=   11 fps=1.1 q=39.0 size=       1KiB time=00:00:00.18 bitrate=  31.7kbits/s speed=0.0181x elapsed=0:00:09.95    \nframe=   15 fps=1.4 q=38.0 size=       1KiB time=00:00:00.28 bitrate=  20.4kbits/s speed=0.0266x elapsed=0:00:10.54    \nframe=   19 fps=1.7 q=33.0 size=       1KiB time=00:00:00.36 bitrate=  15.8kbits/s speed=0.0323x elapsed=0:00:11.14    \nframe=   23 fps=2.0 q=33.0 size=       1KiB time=00:00:00.44 bitrate=  13.0kbits/s speed=0.0374x elapsed=0:00:11.75    \nframe=   27 fps=2.2 q=31.0 size=       1KiB time=00:00:00.52 bitrate=  11.0kbits/s speed=0.0422x elapsed=0:00:12.32    \nframe=   31 fps=2.4 q=24.0 size=       1KiB time=00:00:00.58 bitrate=   9.8kbits/s speed=0.0451x elapsed=0:00:12.86    \nframe=   36 fps=2.7 q=34.0 size=       1KiB time=00:00:00.68 bitrate=   8.4kbits/s speed=0.0505x elapsed=0:00:13.46    \nframe=   39 fps=2.8 q=30.0 size=       1KiB time=00:00:00.76 bitrate=   7.5kbits/s speed=0.0541x elapsed=0:00:14.05    \nframe=   44 fps=3.0 q=31.0 size=       1KiB time=00:00:00.82 bitrate=   7.0kbits/s speed=0.0562x elapsed=0:00:14.58    \nframe=   48 fps=3.2 q=31.0 size=       1KiB time=00:00:00.94 bitrate=   6.1kbits/s speed=0.0618x elapsed=0:00:15.19    \nframe=   53 fps=3.3 q=28.0 size=       1KiB time=00:00:01.02 bitrate=   5.6kbits/s speed=0.0645x elapsed=0:00:15.82    \nframe=   56 fps=3.4 q=31.0 size=       1KiB time=00:00:01.08 bitrate=   5.3kbits/s speed=0.0659x elapsed=0:00:16.38    \nframe=   60 fps=3.5 q=31.0 size=       1KiB time=00:00:01.18 bitrate=   4.8kbits/s speed=0.0698x elapsed=0:00:16.90    \nframe=   65 fps=3.7 q=16.0 size=       1KiB time=00:00:01.28 bitrate=   4.5kbits/s speed=0.0733x elapsed=0:00:17.47    \nframe=   70 fps=3.9 q=31.0 size=       1KiB time=00:00:01.36 bitrate=   4.2kbits/s speed=0.0753x elapsed=0:00:18.06    \nframe=   73 fps=3.9 q=24.0 size=       1KiB time=00:00:01.42 bitrate=   4.0kbits/s speed=0.0762x elapsed=0:00:18.63    \nframe=   78 fps=4.1 q=31.0 size=       1KiB time=00:00:01.52 bitrate=   3.8kbits/s speed=0.0791x elapsed=0:00:19.22    \nframe=   83 fps=4.2 q=32.0 size=       1KiB time=00:00:01.64 bitrate=   3.5kbits/s speed=0.0825x elapsed=0:00:19.86    \nframe=   87 fps=4.3 q=32.0 size=       1KiB time=00:00:01.72 bitrate=   3.3kbits/s speed=0.0842x elapsed=0:00:20.41    \nframe=   91 fps=4.3 q=32.0 size=       1KiB time=00:00:01.80 bitrate=   3.2kbits/s speed=0.0859x elapsed=0:00:20.96    \nframe=   95 fps=4.4 q=29.0 size=       1KiB time=00:00:01.88 bitrate=   3.0kbits/s speed=0.0873x elapsed=0:00:21.53    \nframe=  100 fps=4.5 q=32.0 size=       1KiB time=00:00:01.96 bitrate=   2.9kbits/s speed=0.0885x elapsed=0:00:22.13    \nframe=  105 fps=4.6 q=26.0 size=       1KiB time=00:00:02.06 bitrate=   2.8kbits/s speed=0.0905x elapsed=0:00:22.75    \nframe=  110 fps=4.7 q=30.0 size=       1KiB time=00:00:02.16 bitrate=   2.6kbits/s speed=0.0925x elapsed=0:00:23.35    \nframe=  114 fps=4.8 q=32.0 size=       1KiB time=00:00:02.26 bitrate=   2.5kbits/s speed=0.0943x elapsed=0:00:23.97    \nframe=  119 fps=4.9 q=31.0 size=       1KiB time=00:00:02.36 bitrate=   2.4kbits/s speed=0.0962x elapsed=0:00:24.53    \nframe=  121 fps=4.8 q=25.0 size=       1KiB time=00:00:02.38 bitrate=   2.4kbits/s speed=0.0949x elapsed=0:00:25.07    \nframe=  125 fps=4.9 q=29.0 size=       1KiB time=00:00:02.48 bitrate=   2.3kbits/s speed=0.0965x elapsed=0:00:25.70    \nframe=  130 fps=5.0 q=32.0 size=       1KiB time=00:00:02.58 bitrate=   2.2kbits/s speed=0.0983x elapsed=0:00:26.25    \nframe=  134 fps=5.0 q=32.0 size=       1KiB time=00:00:02.66 bitrate=   2.1kbits/s speed=0.0991x elapsed=0:00:26.84    \nframe=  139 fps=5.1 q=31.0 size=       1KiB time=00:00:02.76 bitrate=   2.1kbits/s speed=0.101x elapsed=0:00:27.42    \nframe=  144 fps=5.1 q=31.0 size=       1KiB time=00:00:02.84 bitrate=   2.0kbits/s speed=0.101x elapsed=0:00:28.01    \nframe=  150 fps=5.2 q=33.0 size=       1KiB time=00:00:02.96 bitrate=   1.9kbits/s speed=0.103x elapsed=0:00:28.60    \nframe=  155 fps=5.3 q=32.0 size=       1KiB time=00:00:03.08 bitrate=   1.9kbits/s speed=0.106x elapsed=0:00:29.15    \nframe=  161 fps=5.4 q=18.0 size=       1KiB time=00:00:03.16 bitrate=   1.8kbits/s speed=0.106x elapsed=0:00:29.67    \nframe=  165 fps=5.4 q=30.0 size=       1KiB time=00:00:03.28 bitrate=   1.7kbits/s speed=0.108x elapsed=0:00:30.29    \nframe=  171 fps=5.5 q=32.0 size=       1KiB time=00:00:03.36 bitrate=   1.7kbits/s speed=0.109x elapsed=0:00:30.85    \nframe=  177 fps=5.6 q=17.0 size=       1KiB time=00:00:03.52 bitrate=   1.6kbits/s speed=0.112x elapsed=0:00:31.39    \nframe=  183 fps=5.7 q=32.0 size=       1KiB time=00:00:03.64 bitrate=   1.6kbits/s speed=0.114x elapsed=0:00:31.97    \nframe=  187 fps=5.8 q=32.0 size=       1KiB time=00:00:03.72 bitrate=   1.5kbits/s speed=0.114x elapsed=0:00:32.50    \nframe=  193 fps=5.8 q=18.0 size=       1KiB time=00:00:03.80 bitrate=   1.5kbits/s speed=0.115x elapsed=0:00:33.11    \nframe=  199 fps=5.9 q=34.0 size=       1KiB time=00:00:03.96 bitrate=   1.4kbits/s speed=0.117x elapsed=0:00:33.73    \nframe=  203 fps=5.9 q=35.0 size=       1KiB time=00:00:04.00 bitrate=   1.4kbits/s speed=0.117x elapsed=0:00:34.25    \nframe=  209 fps=6.0 q=18.0 size=       1KiB time=00:00:04.16 bitrate=   1.4kbits/s speed=0.119x elapsed=0:00:34.85    \nframe=  217 fps=6.1 q=33.0 size=       1KiB time=00:00:04.32 bitrate=   1.3kbits/s speed=0.122x elapsed=0:00:35.40    \nframe=  221 fps=6.1 q=35.0 size=       1KiB time=00:00:04.40 bitrate=   1.3kbits/s speed=0.122x elapsed=0:00:35.95    \nframe=  227 fps=6.2 q=36.0 size=       1KiB time=00:00:04.52 bitrate=   1.3kbits/s speed=0.124x elapsed=0:00:36.48    \nframe=  233 fps=6.3 q=30.0 size=       1KiB time=00:00:04.64 bitrate=   1.2kbits/s speed=0.125x elapsed=0:00:36.99    \nframe=  245 fps=6.5 q=35.0 size=       1KiB time=00:00:04.84 bitrate=   1.2kbits/s speed=0.129x elapsed=0:00:37.52    \n[out#0/matroska @ 000002a7a4d0f0c0] video:2100KiB audio:0KiB subtitle:0KiB other streams:0KiB global headers:0KiB muxing overhead: 0.088451%\nframe=  250 fps=6.6 q=35.0 Lsize=    2102KiB time=00:00:04.98 bitrate=3457.4kbits/s speed=0.132x elapsed=0:00:37.69    \n",
  "seconds": 38.51246094703674,
  "probe_out": {}
}